HIERARCHY
ROOT root
{
	OFFSET	0	13.1	24.9
	CHANNELS 6  Xposition Yposition Zposition Xrotation Yrotation Zrotation
	JOINT spine_1
	{
		OFFSET	0	9.99999	0
		CHANNELS 3  Xrotation Yrotation Zrotation
		JOINT spine_2
		{
			OFFSET	0	112	-10
			CHANNELS 3  Xrotation Yrotation Zrotation
			JOINT spine_3
			{
				OFFSET	0	206.5	19.3
				CHANNELS 3  Xrotation Yrotation Zrotation
				JOINT spine_4
				{
					OFFSET	0	110.4	14.6
					CHANNELS 3  Xrotation Yrotation Zrotation
					JOINT neck_1
					{
						OFFSET	0	71.8	-50.3
						CHANNELS 3  Xrotation Yrotation Zrotation
						JOINT neck_2
						{
							OFFSET	0	86.2	-25.8
							CHANNELS 3  Xrotation Yrotation Zrotation
							JOINT head_ee
							{
								OFFSET	0	179.8	-8.7
								CHANNELS 3  Xrotation Yrotation Zrotation
								End Site
								{
									OFFSET	1	0	0
								}
							}
						}
					}
					JOINT left_clavicle
					{
						OFFSET	-43.2	22.4	-70.8
						CHANNELS 3  Xrotation Yrotation Zrotation
						JOINT left_shoulder
						{
							OFFSET	-93.9	-5.79999	48.7
							CHANNELS 3  Xrotation Yrotation Zrotation
							JOINT left_elbow
							{
								OFFSET	-291.4	-30.8	15.2
								CHANNELS 3  Xrotation Yrotation Zrotation
								JOINT left_lowarm_twist
								{
									OFFSET	-110.7	-3.89999	13.6
									CHANNELS 3  Xrotation Yrotation Zrotation
									JOINT left_hand
									{
										OFFSET	-110.7	-3.89999	13.6
										CHANNELS 3  Xrotation Yrotation Zrotation
										JOINT left_ee
										{
											OFFSET	-80.8	-5.10001	12.1
											CHANNELS 3  Xrotation Yrotation Zrotation
											End Site
											{
												OFFSET	1	0	0
											}
										}
									}
								}
							}
						}
					}
					JOINT right_clavicle
					{
						OFFSET	43.2	22.4	-70.8
						CHANNELS 3  Xrotation Yrotation Zrotation
						JOINT right_shoulder
						{
							OFFSET	93.9	-5.79999	48.7
							CHANNELS 3  Xrotation Yrotation Zrotation
							JOINT right_elbow
							{
								OFFSET	291.4	-30.8	15.2
								CHANNELS 3  Xrotation Yrotation Zrotation
								JOINT right_lowarm_twist
								{
									OFFSET	110.7	-3.89999	13.6
									CHANNELS 3  Xrotation Yrotation Zrotation
									JOINT right_hand
									{
										OFFSET	110.7	-3.89999	13.6
										CHANNELS 3  Xrotation Yrotation Zrotation
										JOINT right_ee
										{
											OFFSET	80.8	-5.10001	12.1
											CHANNELS 3  Xrotation Yrotation Zrotation
											End Site
											{
												OFFSET	1	0	0
											}
										}
									}
								}
							}
						}
					}
				}
			}
		}
	}
	JOINT left_hip
	{
		OFFSET	-82.8	-127.5	0.300001
		CHANNELS 3  Xrotation Yrotation Zrotation
		JOINT left_knee
		{
			OFFSET	-28.2	-396.7	2.2
			CHANNELS 3  Xrotation Yrotation Zrotation
			JOINT left_ankle
			{
				OFFSET	-11.7	-411.3	35.4
				CHANNELS 3  Xrotation Yrotation Zrotation
				JOINT left_toes
				{
					OFFSET	0	-60	-88.6
					CHANNELS 3  Xrotation Yrotation Zrotation
					JOINT left_foot_ee
					{
						OFFSET	-22.5	-16.5	-42.2
						CHANNELS 3  Xrotation Yrotation Zrotation
						End Site
						{
							OFFSET	1	0	0
						}
					}
				}
			}
		}
	}
	JOINT right_hip
	{
		OFFSET	82.8	-127.5	0.300001
		CHANNELS 3  Xrotation Yrotation Zrotation
		JOINT right_knee
		{
			OFFSET	28.2	-396.7	2.2
			CHANNELS 3  Xrotation Yrotation Zrotation
			JOINT right_ankle
			{
				OFFSET	11.7	-411.3	35.4
				CHANNELS 3  Xrotation Yrotation Zrotation
				JOINT right_toes
				{
					OFFSET	0	-60	-88.6
					CHANNELS 3  Xrotation Yrotation Zrotation
					JOINT right_foot_ee
					{
						OFFSET	22.5	-16.5	-42.2
						CHANNELS 3  Xrotation Yrotation Zrotation
						End Site
						{
							OFFSET	1	0	0
						}
					}
				}
			}
		}
	}
}
MOTION
Frames: 6
Frame Time: 0.02
684.15095026 700.157 -1047.39076876 -178.800578281 -18.0326183094 171.180034138 1.53773 0.780652 4.41234 1.54842 0.498587 4.45296 1.58841 -0.324847 4.46896 1.56075 0.384297 4.46425 -16.1377 9.93552 -1.34257 -16.5411 19.8151 2.31978 -0.0 0.0 -0.0 1.22143 17.959 3.96351 -6.47606 -26.7752 52.6221 1.04864 -27.4497 0.25612 2.39983 0.0783518 -0.296481 -3.54068 19.665 -13.2974 -0.0 0.0 -0.0 10.3796 15.0117 -20.5379 -26.2622 29.4957 -60.5359 0.752691 20.4485 -0.135761 10.4935 -0.249879 1.31529 -1.32494 -6.65334 5.87134 0.0 0.0 0.0 1.35956 8.81168 14.8289 -24.634 0.211925 3.74533 39.8691 22.5519 -5.08157 -15.2045 0.0 0.0 -0.0 0.0 -0.0 25.332 10.8131 15.9003 -47.0572 0.975638 -6.95643 5.00746 -29.0154 0.773722 8.81771 -0.0 -0.0 0.0 0.0 0.0 
690.567419994 698.823 -1040.88493989 -179.474111513 -17.1295089842 171.951513921 1.19536 0.921481 4.29409 1.20538 0.646635 4.34389 1.25679 -0.184313 4.38781 1.23029 0.510299 4.36198 -17.2589 11.3436 -0.201765 -17.8276 21.9019 4.15943 -0.0 0.0 -0.0 1.29554 17.8003 4.06408 -6.16729 -26.3597 50.8214 1.18499 -30.4121 0.322099 1.81099 0.0602785 -0.223439 -3.30215 15.4126 -14.2596 -0.0 0.0 -0.0 10.4767 16.6009 -20.6821 -25.7579 28.3234 -62.0434 0.691857 18.9179 -0.115269 11.6366 -0.262447 1.46076 -1.21636 -7.65772 4.70753 0.0 0.0 0.0 2.43854 3.95637 14.4577 -27.649 0.126912 4.20016 39.8911 23.2574 -5.10375 -15.7052 0.0 0.0 -0.0 0.0 -0.0 27.4556 9.95835 14.7047 -48.6917 1.11015 -7.16907 5.76905 -28.1905 0.884869 8.05006 -0.0 -0.0 0.0 0.0 0.0 
696.254412206 702.904 -1046.45152793 -177.863650366 -17.4340972658 174.020773312 1.0563 0.649332 4.10234 1.06558 0.387202 4.13527 1.09575 -0.411995 4.13288 1.072 0.245308 4.14609 -16.9948 11.096 -1.24334 -17.5505 21.9965 3.03896 -0.0 0.0 -0.0 1.89666 17.6711 4.97608 -4.82558 -26.5362 49.673 1.3557 -33.8825 0.412977 0.638812 0.0220695 -0.078601 -3.28726 12.0319 -16.0632 -0.0 0.0 -0.0 10.5947 18.1336 -20.8621 -25.0441 28.7218 -62.2454 0.646074 17.7472 -0.100868 13.6932 -0.277742 1.72299 -0.947663 -9.42006 2.18443 0.0 0.0 0.0 3.0475 -0.331975 14.0974 -21.4127 0.276174 3.25526 37.6733 22.3634 -4.86424 -17.2991 0.0 0.0 -0.0 0.0 -0.0 32.475 10.2339 9.62407 -42.0248 0.600583 -6.27938 3.45289 -29.042 0.535692 6.66235 -0.0 -0.0 0.0 0.0 0.0 
697.416188775 702.666 -1055.61720178 -175.91238625 -18.8406017775 176.432692068 1.2023 0.583629 3.66965 1.20973 0.349101 3.6993 1.23376 -0.356897 3.69855 1.21475 0.231285 3.70851 -16.3178 11.6413 -0.553021 -16.8697 22.6397 3.7542 -0.0 0.0 -0.0 1.98966 17.1065 5.08469 -3.05132 -26.1881 49.2553 1.51633 -36.9095 0.506053 -1.17383 -0.0428356 0.14378 -2.88056 6.14613 -16.4947 -0.0 0.0 -0.0 11.5319 21.781 -22.726 -23.1988 26.2301 -63.3647 0.456506 12.7427 -0.0509747 16.2821 -0.283602 2.05358 -0.858855 -11.7484 0.598786 0.0 0.0 0.0 2.17378 -2.62165 12.886 -12.2269 0.307268 1.8477 32.7057 19.411 -4.28935 -21.5547 0.0 0.0 -0.0 0.0 -0.0 36.1894 6.71379 7.39721 -35.1504 0.187407 -5.30757 2.13224 -26.9813 0.327596 4.15333 -0.0 -0.0 0.0 0.0 0.0 
712.730013803 699.941 -1056.18400503 -174.217805638 -20.461311035 178.192882177 1.26737 0.464659 3.2486 1.2732 0.257114 3.27155 1.2889 -0.363211 3.26149 1.27409 0.156152 3.27791 -14.2867 11.3132 -0.946359 -14.6932 22.1697 2.83176 -0.0 0.0 -0.0 2.44166 16.8203 5.77207 -0.859515 -23.0306 48.0874 1.66808 -39.5644 0.599997 -2.4422 -0.0924256 0.298132 -2.26344 0.0892816 -15.2581 -0.0 0.0 -0.0 11.7334 22.0955 -23.1593 -24.4698 25.5438 -62.4888 0.340834 9.58359 -0.0285716 18.9519 -0.273999 2.39442 -0.431652 -11.8309 -2.14202 0.0 0.0 0.0 1.65322 -1.78612 12.7733 -8.99423 0.264526 1.35358 33.5309 20.6217 -4.40012 -24.8665 0.0 0.0 -0.0 0.0 -0.0 38.3881 5.06748 5.79931 -30.7594 -0.0142297 -4.66417 -1.88423 -25.4521 -0.289531 3.15727 -0.0 -0.0 0.0 0.0 0.0 
714.73610995 699.941 -1060.6092376 -174.187525372 -21.2442521263 178.277944757 1.26737 0.464659 3.2486 1.2732 0.257114 3.27155 1.2889 -0.363211 3.26149 1.27409 0.156152 3.27791 -14.2867 11.3132 -0.946359 -14.6932 22.1697 2.83176 -0.0 0.0 -0.0 2.44166 16.8203 5.77207 -0.859515 -23.0306 48.0874 1.66808 -39.5644 0.599997 -2.4422 -0.0924256 0.298132 -2.26344 0.0892816 -15.2581 -0.0 0.0 -0.0 11.7334 22.0955 -23.1593 -24.4698 25.5438 -62.4888 0.340834 9.58359 -0.0285716 18.9519 -0.273999 2.39442 -0.431652 -11.8309 -2.14202 0.0 0.0 0.0 1.65322 -1.78612 12.7733 -8.99423 0.264526 1.35358 33.5309 20.6217 -4.40012 -24.8665 0.0 0.0 -0.0 0.0 -0.0 38.3881 5.06748 5.79931 -30.7594 -0.0142297 -4.66417 -1.88423 -25.4521 -0.289531 3.15727 -0.0 -0.0 0.0 0.0 0.0 
